/* XPM */
static char *_541009718588[] = {
/* columns rows colors chars-per-pixel */
"128 128 2 1 ",
"  c black",
". c None",
/* pixels */
"................................................................................................................................",
"................................................................................................................................",
"................................................................................................................................",
"................................................................................................................................",
"................................................................................................................................",
"................................................................................................................................",
"................................................................................................................................",
"................................................................................................................................",
"................................................................................................................................",
"................................................................................................................................",
"................................................................................................................................",
"................................................................................................................................",
"................................................................................................................................",
"................................................................................................................................",
".................................                                                              .................................",
"..........................                                                                            ..........................",
".......................                                                                                  .......................",
".....................                                                                                      .....................",
"...................                                                                                          ...................",
".................                                                                                              .................",
"................                                                                                                ................",
"...............                                                                                                  ...............",
"..............                                                                                                    ..............",
".............                                                                                                      .............",
"............                                                                                                        ............",
"...........                                                                                                          ...........",
"...........                                                                                                          ...........",
"..........                                                                                                            ..........",
"..........                                                                                                            ..........",
".........                                                                                                              .........",
".........                                                                                                              .........",
"........                          ........                    ....                    ........                          ........",
"........                        ..........                    ....                    ..........                        ........",
"........                      ............                    ....                    ............                      ........",
"........                     .............                    ....                    .............                     ........",
".......                      .............                    ....                    .............                      .......",
".......                     ..............                    ....                    ..............                     .......",
".......                     ..............                    ....                    ..............                     .......",
".......                    ...............                    ....                    ...............                    .......",
".......                    ...............                    ....                    ...............                    .......",
".......                    ...............                    ....                    ...............                    .......",
".......                    ...............                    ....                    ...............                    .......",
".......                    ...............                    ....                    ...............                    .......",
".......                    ...............                    ....                    ...............                    .......",
"........                   ...............                    ....                    ...............                   ........",
"........                   ...............                    ....                    ...............                   ........",
"........                    ..............                    ....                    ..............                    ........",
".........                   ..............                    ....                    ..............                   .........",
".........                    .............                    ....                    .............                    .........",
".........                    .............                    ....                    .............                    .........",
"..........                     ...........                    ....                    ...........                     ..........",
"...........                     ..........                    ....                    ..........                     ...........",
"...........                       ........                    ....                    ........                       ...........",
"............                            ..                     ..                     ..                            ............",
".............                                                                                                      .............",
"..............                                                                                                    ..............",
"...............                                                                                                  ...............",
"................                                                                                                ................",
".................                                                                                              .................",
"...................                                                                                          ...................",
"....................                                                                                        ....................",
"...................                                                                                          ...................",
"................                                                                                                ................",
"..............                                                                                                    ..............",
".............                                                                                                      .............",
"...........                                                                                                          ...........",
"..........                                                                                                            ..........",
".........                                                                                                              .........",
"........                                                                                                                ........",
".......                                                                                                                  .......",
".......                                 ..                     ..                     ..                                 .......",
"......                          ..........                    ....                    ..........                          ......",
".....                         ............                    ....                    ............                         .....",
".....                       ..............                    ....                    ..............                       .....",
"....                       ...............                    ....                    ...............                       ....",
"....                      ................                    ....                    ................                      ....",
"....                     .................                    ....                    .................                     ....",
"...                     ..................                    ....                    ..................                     ...",
"...                     ..................                    ....                    ..................                     ...",
"...                     ..................                    ....                    ..................                     ...",
"...                    ...................                    ....                    ...................                    ...",
"..                     ...................                    ....                    ...................                     ..",
"..                     ...................                    ....                    ...................                     ..",
"..                     ...................                    ....                    ...................                     ..",
"..                     ...................                    ....                    ...................                     ..",
"..                     ...................                    ....                    ...................                     ..",
"..                     ...................                    ....                    ...................                     ..",
"..                     ...................                    ....                    ...................                     ..",
"..                      ..................                    ....                    ..................                      ..",
"...                     ..................                    ....                    ..................                     ...",
"...                     ..................                    ....                    ..................                     ...",
"...                      .................                    ....                    .................                      ...",
"...                       ................                    ....                    ................                       ...",
"...                        ...............                    ....                    ...............                        ...",
"....                        ..............                    ....                    ..............                        ....",
"....                          ............                    ....                    ............                          ....",
".....                            .........                    ....                    .........                            .....",
".....                                                                                                                      .....",
".....                                                                                                                      .....",
"......                                                                                                                    ......",
".......                                                                                                                  .......",
".......                                                                                                                  .......",
"........                                                                                                                ........",
".........                                                                                                              .........",
"..........                                                                                                            ..........",
"..........                                                                                                            ..........",
"...........                                                                                                          ...........",
".............                                                                                                      .............",
"..............                                                                                                    ..............",
"................                                                                                                ................",
".................                                                                                              .................",
"....................                                                                                        ....................",
".......................                                                                                  .......................",
"..............................                                                                    ..............................",
"................................................................................................................................",
"................................................................................................................................",
"................................................................................................................................",
"................................................................................................................................",
"................................................................................................................................",
"................................................................................................................................",
"................................................................................................................................",
"................................................................................................................................",
"................................................................................................................................",
"................................................................................................................................",
"................................................................................................................................",
"................................................................................................................................",
"................................................................................................................................",
"................................................................................................................................"
};
